<?xml version="1.0" standalone="no"?>
<!DOCTYPE svg PUBLIC "-//W3C//DTD SVG 20010904//EN"
 "http://www.w3.org/TR/2001/REC-SVG-20010904/DTD/svg10.dtd">
<svg version="1.0" xmlns="http://www.w3.org/2000/svg"
 width="1491.000000pt" height="1412.000000pt" viewBox="0 0 1491.000000 1412.000000"
 preserveAspectRatio="xMidYMid meet">

<g transform="translate(0.000000,1412.000000) scale(0.100000,-0.100000)"
fill="#000000" stroke="none">
<path d="M7137 13759 c-2414 -106 -4593 -1517 -5687 -3684 -888 -1761 -953
-3829 -178 -5650 101 -239 356 -737 397 -778 8 -8 239 111 336 172 127 80 418
196 565 226 70 14 269 75 376 115 60 23 147 55 194 72 89 31 269 119 453 220
123 68 177 92 177 80 0 -4 -18 -36 -41 -71 -22 -34 -45 -77 -51 -94 -16 -49
-55 -95 -98 -117 -22 -11 -44 -29 -50 -40 -8 -16 -21 -20 -60 -20 -38 0 -50
-4 -50 -15 0 -23 -28 -30 -57 -14 -22 12 -26 11 -41 -7 -10 -12 -25 -24 -35
-27 -9 -4 -22 -17 -28 -30 -16 -35 -115 -73 -219 -83 -36 -4 -69 -13 -75 -20
-10 -14 -68 -36 -146 -58 -26 -7 -69 -29 -96 -48 -33 -25 -62 -38 -92 -41 -29
-2 -49 -11 -60 -25 -14 -19 -20 -20 -60 -11 -44 10 -81 5 -81 -11 0 -22 -53
-70 -78 -70 -18 0 -43 -16 -75 -46 -27 -25 -60 -49 -74 -55 -14 -5 -27 -18
-30 -29 -3 -11 -9 -20 -13 -20 -5 0 -33 -22 -63 -50 -37 -34 -62 -67 -76 -103
-18 -45 -30 -58 -65 -76 -74 -36 -74 -36 9 -155 217 -309 403 -533 685 -820
536 -547 1096 -958 1765 -1296 759 -384 1525 -606 2395 -696 213 -22 823 -30
1061 -15 1478 97 2845 656 3969 1625 253 218 613 592 830 862 136 170 133 157
61 193 -32 17 -71 32 -86 35 -29 5 -105 67 -125 103 -8 13 -27 25 -45 29 -21
4 -54 27 -93 65 -34 32 -63 59 -65 59 -4 0 -87 74 -102 91 -18 21 -93 94 -125
122 -17 15 -40 27 -51 27 -16 0 -19 4 -13 23 3 12 8 24 10 26 7 8 54 -22 59
-38 3 -9 28 -31 55 -49 28 -19 74 -52 103 -76 76 -61 160 -117 361 -239 98
-59 190 -117 204 -128 l26 -20 18 23 c47 61 174 246 246 358 1267 1985 1394
4510 332 6615 -522 1033 -1301 1914 -2260 2557 -1035 693 -2199 1072 -3460
1128 -248 11 -320 11 -583 -1z m-657 -1414 c0 -8 -7 -15 -15 -15 -16 0 -20 12
-8 23 11 12 23 8 23 -8z m-90 -55 c0 -5 -5 -10 -11 -10 -5 0 -7 5 -4 10 3 6 8
10 11 10 2 0 4 -4 4 -10z m-185 -10 c3 -5 1 -19 -6 -32 -11 -21 -12 -21 -25
-3 -10 14 -11 22 -3 32 13 15 26 17 34 3z m185 -40 c7 -14 8 -26 0 -39 -5 -11
-10 -33 -10 -50 0 -16 -5 -33 -12 -37 -8 -5 -9 2 -5 24 8 41 -11 47 -56 16
-46 -31 -67 -31 -67 -1 0 34 19 55 75 82 62 29 62 29 75 5z m-246 -17 c4 -4
15 -8 23 -8 13 0 17 -14 20 -69 3 -61 0 -74 -22 -108 -14 -21 -29 -38 -35 -38
-5 0 -26 -27 -47 -60 -43 -69 -74 -78 -83 -25 -6 37 -30 42 -52 11 -17 -23
-17 -24 7 -30 15 -4 25 -14 25 -24 0 -27 -29 -62 -51 -62 -22 0 -23 -8 -6 -75
19 -74 43 -82 138 -49 41 14 101 31 134 39 33 7 71 17 85 22 14 5 44 8 67 5
29 -3 56 2 85 16 37 18 77 22 273 32 225 10 385 5 510 -18 55 -10 132 -37 150
-52 7 -6 37 -19 68 -29 30 -11 66 -26 79 -34 12 -8 38 -18 57 -22 18 -4 55
-18 81 -31 26 -13 53 -24 60 -24 6 0 62 -25 124 -55 61 -30 116 -55 122 -55
18 0 109 -52 153 -88 72 -59 92 -140 30 -127 -24 6 -31 2 -49 -27 -22 -36 -20
-66 7 -130 18 -43 11 -77 -12 -58 -8 6 -13 17 -12 22 1 6 -4 13 -10 15 -19 7
-27 -25 -14 -50 17 -33 31 -87 22 -87 -5 0 -14 7 -21 15 -22 27 -29 16 -23
-39 5 -49 4 -54 -17 -61 -15 -5 -25 -2 -31 6 -4 7 -12 10 -16 5 -4 -5 -2 -11
5 -13 15 -6 15 -37 0 -79 -10 -29 -8 -36 20 -80 19 -28 32 -60 32 -80 0 -27 8
-38 55 -73 41 -31 55 -48 55 -67 0 -33 15 -60 59 -109 55 -60 117 -156 124
-190 8 -46 70 -220 84 -236 6 -8 12 -48 13 -89 1 -41 3 -136 5 -210 2 -74 4
-151 4 -172 0 -20 7 -43 16 -51 8 -9 15 -32 15 -51 0 -25 4 -36 15 -36 18 0
20 42 3 69 -11 19 -5 51 10 51 14 0 54 -92 67 -154 l12 -58 -28 -10 c-24 -8
-29 -16 -29 -44 0 -19 7 -45 14 -57 8 -12 22 -49 30 -81 9 -33 23 -67 31 -76
19 -21 19 -41 0 -66 -20 -27 -19 -44 7 -71 l22 -23 -23 -31 c-18 -24 -22 -39
-17 -67 4 -21 10 -59 14 -86 8 -55 31 -78 60 -60 9 6 33 42 52 80 33 64 35 75
35 166 0 53 4 100 8 104 4 4 7 35 7 68 0 77 8 90 49 81 31 -7 31 -7 31 37 0
37 4 45 29 59 18 11 31 28 36 47 3 17 17 37 29 46 17 10 26 29 30 60 8 52 21
60 31 17 10 -49 41 -50 103 -3 21 16 32 33 32 49 l0 25 -35 -26 c-40 -31 -54
-20 -36 28 14 35 40 45 58 20 13 -18 15 -17 46 18 42 49 275 164 365 180 107
20 236 -17 345 -100 109 -83 214 -308 210 -452 -1 -65 -43 -220 -79 -293 -14
-29 -37 -81 -51 -117 -49 -125 -259 -475 -317 -529 -23 -21 -25 -31 -24 -96 0
-69 -18 -225 -44 -360 -6 -33 -15 -82 -19 -110 -10 -64 -10 -355 0 -460 10
-104 -3 -255 -36 -435 -23 -130 -26 -168 -25 -365 0 -165 6 -259 22 -375 12
-85 25 -195 30 -244 23 -215 80 -467 128 -563 23 -45 64 -94 154 -184 125
-124 136 -133 244 -189 102 -53 174 -142 174 -216 0 -33 -56 -168 -95 -227
-54 -84 -126 -168 -182 -211 -28 -23 -89 -73 -135 -112 -45 -39 -110 -89 -143
-111 -94 -62 -263 -149 -356 -183 -344 -126 -498 -168 -729 -201 -74 -10 -160
-23 -190 -28 -117 -19 -351 -36 -495 -36 -234 1 -416 30 -780 127 -327 87
-475 149 -710 298 -248 158 -473 381 -505 502 -6 22 -22 46 -40 58 -19 13 -30
30 -30 45 0 12 -14 49 -32 81 -124 230 -172 349 -172 428 0 55 3 61 33 87 18
15 68 42 110 60 98 42 209 107 221 129 18 34 62 335 76 520 5 67 13 119 21
133 2 4 19 -4 36 -17 18 -13 49 -31 70 -41 21 -10 45 -31 53 -46 16 -32 32
-37 40 -14 4 9 19 15 40 15 29 0 34 -3 34 -24 0 -19 13 -34 54 -60 29 -20 60
-36 69 -36 9 0 22 -9 31 -21 10 -16 30 -23 74 -28 33 -4 67 -13 76 -20 9 -7
23 -10 33 -7 9 4 68 9 129 11 l113 4 23 -28 c13 -16 28 -37 34 -47 10 -17 12
-17 36 9 19 20 35 27 62 27 25 0 49 9 72 26 19 15 34 21 34 16 0 -20 40 -35
56 -21 26 21 16 39 -21 39 -39 0 -39 6 4 60 l20 25 25 -24 c14 -14 26 -33 26
-44 0 -11 16 -37 35 -58 19 -22 35 -48 35 -59 0 -11 5 -20 10 -20 6 0 10 11
10 24 0 34 27 93 45 100 31 11 35 6 35 -41 0 -58 9 -95 21 -87 5 3 9 15 9 27
0 12 9 33 20 47 11 14 20 30 20 36 0 6 -22 37 -50 68 -56 64 -54 60 -40 87 15
27 26 24 70 -20 36 -36 40 -44 40 -90 0 -64 29 -70 59 -13 13 24 49 29 83 11
11 -6 22 -9 24 -7 7 8 -33 82 -55 102 -15 13 -19 26 -14 47 4 24 -1 36 -31 70
-31 33 -35 43 -25 55 7 8 18 13 26 10 11 -5 12 2 7 29 l-6 35 41 0 c23 0 55
-9 73 -20 18 -11 43 -20 55 -20 28 0 38 -17 22 -36 -9 -11 -23 -14 -47 -10
-18 3 -44 1 -58 -4 -34 -13 -33 -62 1 -84 16 -11 25 -26 25 -43 0 -29 25 -63
46 -63 8 0 21 11 30 25 9 14 25 25 35 25 31 0 22 32 -16 63 -47 37 -45 51 6
44 36 -5 44 -2 75 29 18 19 34 40 34 45 0 18 109 0 139 -22 30 -22 147 -36
171 -20 12 8 10 14 -13 35 -15 14 -27 32 -27 40 0 13 -9 14 -43 10 -39 -6 -45
-3 -60 19 -13 20 -28 27 -72 32 -32 4 -73 3 -98 -3 -45 -12 -61 -5 -51 21 11
30 50 33 226 22 105 -7 118 -6 124 9 3 9 1 23 -6 32 -10 11 -10 18 -2 26 17
17 40 2 44 -29 2 -23 8 -29 33 -31 24 -2 39 5 68 33 20 20 37 40 37 45 0 5
-15 10 -32 12 -26 2 -36 10 -50 38 -23 47 -22 50 10 50 51 0 69 42 33 74 -18
17 -21 16 -59 -5 -40 -23 -41 -23 -78 -6 -33 16 -36 20 -22 33 8 9 30 19 49
24 93 24 166 70 174 109 2 11 22 37 44 59 38 37 39 40 24 61 -24 35 -4 68 50
82 49 12 62 30 73 100 5 29 15 47 36 62 41 31 35 61 -14 65 -32 3 -38 7 -38
27 0 13 5 27 11 30 6 4 8 13 5 21 -3 8 -1 27 5 42 6 15 11 40 11 56 -1 18 10
42 25 60 14 17 32 44 39 61 11 27 10 32 -13 53 l-25 23 26 28 c28 30 33 47 14
53 -7 2 -65 4 -128 3 -105 -2 -115 -3 -118 -21 -7 -42 -14 -50 -23 -27 -8 23
-66 53 -100 53 -12 0 -24 -13 -34 -36 -14 -35 -17 -36 -51 -29 -37 6 -37 6
-31 -24 7 -34 -13 -47 -57 -35 -22 5 -26 3 -26 -15 0 -17 -6 -21 -30 -21 -33
0 -33 2 -30 -139 0 -28 -3 -32 -17 -26 -10 4 -36 11 -58 15 l-40 7 28 11 c15
6 27 17 27 24 0 18 -91 98 -112 98 -29 0 -22 -36 12 -60 34 -24 41 -60 11 -60
-10 0 -30 -9 -45 -21 -26 -20 -56 -20 -56 1 0 6 11 16 25 22 29 13 30 21 10
77 -8 22 -12 41 -9 41 2 0 0 9 -6 20 -6 11 -17 20 -25 20 -8 0 -19 -9 -25 -20
-18 -34 -70 -19 -70 21 0 10 11 19 30 23 18 3 30 12 30 21 0 21 27 30 45 15
13 -10 19 -10 33 4 10 9 24 16 31 16 10 0 11 13 6 53 -8 55 -19 77 -40 77 -7
0 -24 9 -38 20 -35 28 -71 26 -91 -5 -21 -31 -27 -31 -65 1 -37 31 -75 29 -79
-3 -2 -16 2 -23 12 -23 20 0 96 -68 96 -86 0 -23 -21 -27 -43 -6 -33 30 -105
63 -112 52 -7 -11 21 -54 54 -84 12 -11 21 -25 21 -32 0 -7 18 -28 41 -46 38
-30 41 -36 36 -70 -5 -37 -4 -38 25 -35 18 1 33 -3 35 -10 3 -8 -5 -13 -22
-13 -15 0 -40 -8 -57 -17 l-30 -18 -31 36 c-41 46 -61 53 -115 37 -34 -10 -42
-16 -38 -31 3 -13 -4 -24 -25 -35 -16 -10 -31 -23 -34 -31 -8 -21 14 -41 45
-41 24 0 30 -6 44 -49 9 -28 16 -55 16 -60 0 -18 -35 -12 -60 9 -27 23 -22 22
-54 10 -22 -8 -31 -5 -58 19 -39 33 -71 51 -92 51 -26 0 -19 -50 11 -82 22
-23 24 -30 13 -43 -7 -8 -20 -15 -29 -15 -9 0 -32 -9 -52 -19 -20 -11 -46 -17
-61 -14 -20 4 -30 -1 -43 -21 -10 -14 -15 -33 -11 -41 6 -16 36 -21 36 -5 0 5
10 14 21 21 18 9 25 7 43 -11 11 -13 16 -20 11 -17 -6 3 -18 -1 -28 -8 -15
-11 -16 -17 -8 -34 19 -34 13 -45 -14 -27 -13 9 -39 16 -57 16 -18 0 -45 6
-60 14 -26 14 -27 14 -30 -17 -2 -26 -7 -31 -23 -29 -28 5 -54 31 -70 69 -16
37 -35 44 -35 12 0 -18 -4 -20 -27 -15 -65 16 -68 15 -65 -31 5 -57 -15 -57
-59 2 -33 43 -64 64 -77 50 -3 -3 -1 -15 6 -25 17 -28 15 -51 -8 -80 -11 -14
-20 -31 -20 -39 0 -9 -7 -11 -22 -6 -72 22 -106 12 -74 -24 21 -23 21 -77 0
-85 -27 -10 -50 11 -71 66 -15 39 -26 54 -42 56 -21 3 -22 1 -15 -45 5 -38 3
-52 -10 -62 -22 -19 -46 -6 -46 24 0 43 -18 68 -45 61 -17 -4 -29 0 -43 19
-19 23 -20 24 -36 6 -9 -9 -16 -23 -16 -29 0 -22 23 -62 37 -62 7 0 13 -5 13
-10 0 -6 -10 -8 -24 -4 -34 8 -69 -27 -57 -58 11 -31 -3 -58 -44 -86 -45 -29
-51 -28 -63 7 -9 26 -7 32 11 44 12 8 19 18 15 22 -4 4 -14 2 -23 -5 -8 -7
-44 -14 -80 -16 -60 -2 -66 0 -86 24 -14 18 -19 35 -15 54 9 44 -12 43 -65 -2
-52 -43 -69 -45 -69 -4 0 15 -6 24 -15 24 -13 0 -14 -4 -4 -21 8 -16 8 -28 0
-46 -6 -13 -11 -35 -11 -48 0 -34 -15 -39 -34 -10 -14 21 -24 25 -68 25 -67 0
-126 -18 -133 -42 -9 -27 -41 -40 -80 -32 -33 6 -36 4 -50 -29 -18 -43 -31
-53 -50 -37 -18 15 -20 51 -4 67 7 7 9 19 5 28 -5 14 -11 12 -37 -14 -53 -54
-84 -35 -50 30 22 42 16 79 -13 79 -31 0 -38 30 -41 182 -4 160 -12 210 -74
438 -17 63 -38 153 -46 200 -8 47 -26 128 -40 180 -13 52 -25 100 -25 106 0 6
11 23 25 38 30 32 31 43 6 70 -33 38 -45 106 -30 183 7 37 18 75 24 83 6 8 16
27 22 41 8 18 34 38 80 61 61 31 70 39 84 79 30 82 31 97 9 116 -11 10 -20 27
-20 38 0 11 -10 33 -23 48 -22 27 -23 28 -52 13 -38 -20 -41 -20 -65 4 -12 12
-25 18 -30 15 -15 -9 -38 36 -45 88 -9 58 -37 94 -114 146 -72 49 -125 108
-142 157 -7 22 -13 77 -13 124 0 67 6 98 25 145 33 77 85 158 160 245 79 92
169 225 181 266 5 20 21 40 41 53 47 29 71 57 63 77 -6 15 -8 15 -31 0 -32
-21 -45 -20 -45 4 0 29 42 52 82 46 28 -5 39 0 72 29 50 45 43 60 -31 70 -113
14 -163 12 -179 -9 -7 -11 -17 -17 -20 -13 -9 8 -22 74 -35 171 -15 109 -11
116 94 144 83 23 89 23 179 9 51 -8 103 -18 116 -22 19 -6 22 -4 22 16 -1 31
-56 119 -95 151 -97 81 -238 93 -265 23 -17 -46 -33 -30 -26 28 12 98 99 251
249 434 97 119 149 192 196 280 35 65 86 155 113 200 65 110 79 150 67 203
-10 43 0 101 26 150 15 28 40 101 49 143 5 22 12 27 36 27 37 0 66 42 76 110
10 74 53 137 163 247 99 97 132 118 155 96z m2393 -2487 c-8 -19 -37 -21 -37
-3 0 7 5 18 12 25 15 15 33 -1 25 -22z m89 -123 c-10 -10 -19 5 -10 18 6 11 8
11 12 0 2 -7 1 -15 -2 -18z m11 -605 c-3 -8 -6 -5 -6 6 -1 11 2 17 5 13 3 -3
4 -12 1 -19z m-768 -1557 c21 -40 18 -81 -6 -81 -7 0 -32 9 -53 20 -53 27 -56
64 -7 85 44 20 44 20 66 -24z m769 -113 c19 -19 15 -27 -23 -42 -27 -12 -35
-21 -35 -40 l0 -25 -35 21 c-33 19 -37 19 -54 4 -10 -9 -23 -16 -29 -16 -6 0
-24 -11 -40 -25 l-30 -25 -29 24 c-15 13 -36 25 -47 27 -10 2 -26 15 -35 29
l-16 25 25 -16 c70 -45 65 -44 102 -21 21 13 52 22 76 22 31 0 42 4 47 19 3
11 24 26 48 34 55 19 61 19 75 5z m-1094 -194 c17 -16 21 -34 8 -34 -13 0 -52
30 -52 41 0 14 27 11 44 -7z m26 -124 c0 -5 -4 -10 -10 -10 -5 0 -10 5 -10 10
0 6 5 10 10 10 6 0 10 -4 10 -10z m-280 -234 c0 -3 -7 -12 -16 -20 -12 -13
-20 -14 -37 -4 -21 11 -21 11 -2 19 22 8 55 11 55 5z m-674 -277 c9 -16 -18
-30 -33 -17 -7 6 -10 14 -7 19 7 13 31 11 40 -2z m-937 -173 c12 -14 5 -46
-10 -46 -9 0 -29 33 -29 49 0 16 25 14 39 -3z m2490 -67 c39 -14 41 -40 5 -68
-27 -21 -50 -26 -78 -15 -20 8 -20 15 -2 59 16 38 26 41 75 24z m-635 -375 c9
-24 7 -34 -8 -34 -14 0 -28 34 -18 44 10 10 20 6 26 -10z m-169 -76 c7 -47 7
-48 -19 -48 -24 0 -26 3 -26 43 0 42 17 74 31 60 4 -5 10 -29 14 -55z m-148
-18 c5 -37 4 -42 -13 -38 -13 2 -20 13 -22 37 -8 76 25 78 35 1z m183 -99 c0
-11 -4 -23 -10 -26 -6 -4 -10 5 -10 19 0 14 5 26 10 26 6 0 10 -9 10 -19z
m-1825 -681 c9 -15 -37 -70 -65 -77 -14 -3 -36 -11 -50 -18 -51 -27 -86 -35
-138 -32 -34 1 -55 -2 -61 -11 -5 -9 -13 1 -24 29 -22 57 -11 69 64 69 32 0
70 5 86 11 22 9 131 32 175 38 4 1 10 -3 13 -9z m-402 -47 c2 -5 -4 -27 -15
-50 -15 -34 -24 -43 -43 -43 -20 0 -30 -11 -50 -51 -22 -43 -25 -58 -19 -107
7 -70 -14 -134 -43 -129 -40 7 -84 39 -97 72 -21 50 -46 51 -150 10 -49 -19
-104 -35 -121 -35 -18 0 -44 -9 -58 -20 -29 -23 -52 -25 -87 -5 -35 20 -35 19
-59 -20 -14 -24 -28 -35 -44 -35 -12 0 -27 -4 -33 -10 -6 -6 -21 -6 -43 3 -29
10 -35 10 -39 -2 -8 -23 -49 -61 -67 -61 -21 0 -19 25 5 69 11 20 23 59 28 86
l7 50 120 8 c102 6 137 13 230 46 61 22 126 44 146 50 46 15 168 76 235 119
66 43 185 76 197 55z m397 -62 c0 -12 -20 -25 -27 -18 -7 7 6 27 18 27 5 0 9
-4 9 -9z m-1546 -308 c-3 -16 -14 -58 -25 -96 -11 -37 -18 -80 -17 -95 3 -24
0 -27 -27 -27 l-30 0 -3 101 -3 102 43 21 c58 29 70 27 62 -6z m-640 -536 c8
-13 6 -22 -11 -38 -26 -27 -45 -17 -37 19 12 48 26 54 48 19z m8114 -146 c32
-22 277 -149 347 -179 62 -27 149 -88 153 -109 3 -13 -4 -14 -45 -8 -36 5 -57
15 -85 42 -20 20 -79 57 -130 83 -150 75 -201 106 -243 149 -42 44 -40 53 3
22z"/>
<path d="M6096 12158 c-20 -28 -21 -58 -2 -58 15 0 56 50 56 69 0 20 -38 12
-54 -11z"/>
<path d="M5792 11589 c2 -7 10 -15 17 -17 8 -3 12 1 9 9 -2 7 -10 15 -17 17
-8 3 -12 -1 -9 -9z"/>
<path d="M6270 10508 c-14 -6 -55 -10 -92 -9 -54 1 -77 -3 -117 -24 -61 -30
-77 -74 -56 -149 7 -27 7 -28 -14 -17 -48 26 -57 -30 -11 -74 25 -24 40 -29
83 -30 28 -1 78 -6 109 -12 44 -7 65 -6 85 3 16 7 76 32 136 55 59 22 107 45
107 49 0 15 -31 40 -48 40 -9 0 -23 4 -30 9 -24 15 56 54 98 47 19 -3 64 -9
100 -14 36 -5 85 -17 110 -26 58 -20 66 -20 90 4 15 15 33 20 74 20 50 0 54
-2 66 -30 l12 -30 92 0 c50 0 101 -3 113 -6 16 -5 25 -1 30 11 9 24 -30 55
-70 55 -17 0 -48 12 -71 28 -36 25 -48 27 -148 30 -103 4 -111 2 -134 -19
l-24 -23 -28 20 c-70 52 -121 67 -229 70 -75 1 -110 6 -128 18 -28 18 -68 20
-105 4z"/>
<path d="M6456 10511 c5 -5 27 -6 49 -1 l40 8 -49 1 c-30 1 -46 -3 -40 -8z"/>
<path d="M5925 10410 c3 -5 8 -10 11 -10 2 0 4 5 4 10 0 6 -5 10 -11 10 -5 0
-7 -4 -4 -10z"/>
<path d="M6864 10325 c10 -8 23 -12 28 -9 14 9 -2 24 -25 24 -21 -1 -21 -1 -3
-15z"/>
<path d="M6350 10133 c-53 -8 -99 -35 -109 -65 -6 -16 -8 -35 -5 -43 3 -7 -10
-44 -30 -82 -35 -67 -47 -117 -33 -140 14 -23 113 -35 190 -23 125 19 132 23
146 84 18 81 2 103 -64 85 -27 -8 -40 -7 -51 2 -26 22 -9 34 62 42 154 18 162
16 327 -81 48 -28 57 -38 57 -62 0 -28 17 -40 60 -45 8 -1 30 -5 48 -9 41 -10
125 1 149 19 16 12 16 15 3 28 -17 17 -209 106 -290 135 -30 11 -86 31 -123
45 -37 14 -106 36 -154 48 -47 13 -101 33 -120 46 -19 13 -35 22 -36 22 -1 -1
-13 -4 -27 -6z"/>
<path d="M6791 10086 c37 -37 245 -156 273 -156 25 0 7 27 -32 52 -66 41 -263
126 -241 104z"/>
<path d="M9575 9531 c-85 -14 -189 -93 -234 -179 -36 -68 -60 -207 -42 -241
15 -28 35 -27 86 7 50 31 55 43 55 137 0 53 5 78 21 104 l20 33 82 -3 c76 -4
85 -7 129 -40 40 -31 57 -37 118 -43 39 -3 85 -13 101 -21 27 -14 29 -14 29 3
0 25 -28 62 -47 62 -12 0 -14 7 -9 34 6 29 2 40 -24 70 -59 67 -166 96 -285
77z"/>
<path d="M9256 8988 c-10 -50 -28 -236 -24 -248 3 -11 57 -35 105 -47 25 -6
34 17 30 77 -2 33 0 35 30 38 28 3 35 -1 45 -25 16 -36 29 -45 45 -31 28 23
-2 148 -40 166 -12 5 -52 24 -89 41 -38 16 -68 35 -68 40 0 21 -30 11 -34 -11z"/>
<path d="M8390 8792 c0 -5 16 -27 36 -50 36 -43 64 -54 64 -26 0 29 -21 54
-57 69 -41 17 -43 18 -43 7z"/>
<path d="M9129 8795 c-1 -5 -3 -59 -4 -120 -1 -93 -6 -121 -28 -180 -32 -82
-31 -81 -12 -65 9 7 38 17 65 21 88 14 103 26 115 97 10 55 10 66 -7 92 -10
17 -26 30 -37 30 -28 0 -51 27 -51 60 0 27 -37 86 -41 65z"/>
<path d="M5103 8751 c-34 -21 -63 -67 -63 -99 0 -10 11 -24 25 -30 31 -14 32
-28 3 -38 -14 -4 -25 -1 -33 10 -13 17 -55 22 -55 6 0 -5 12 -18 27 -27 15
-10 36 -26 45 -35 10 -10 22 -18 27 -18 6 0 31 -18 56 -40 25 -22 56 -43 68
-46 36 -9 87 -81 87 -121 0 -19 4 -42 9 -51 6 -11 3 -39 -7 -79 -13 -51 -14
-64 -3 -77 18 -22 39 -20 90 9 23 14 47 25 51 25 4 0 34 -17 66 -39 33 -21 76
-44 97 -51 21 -6 41 -18 43 -25 3 -8 32 -16 75 -20 38 -4 72 -11 75 -16 3 -5
21 -9 40 -9 21 0 37 -6 40 -14 3 -8 30 -34 60 -57 30 -23 54 -48 54 -57 0 -16
-24 -15 -185 8 -179 26 -170 27 -210 -13 -20 -20 -34 -41 -30 -47 3 -5 32 -10
63 -10 31 0 106 -9 166 -19 98 -17 112 -23 145 -54 39 -37 91 -53 110 -34 7 7
55 14 114 17 96 5 105 8 147 38 38 28 52 33 90 30 42 -3 45 -1 48 22 4 36 -69
147 -103 156 -14 3 -69 35 -121 70 -103 69 -135 77 -164 42 -16 -20 -21 -21
-37 -10 -22 15 -26 16 -88 31 -28 7 -60 23 -73 37 -13 13 -32 24 -42 24 -11 0
-20 7 -20 15 0 26 -59 82 -105 99 -25 10 -45 20 -45 24 0 3 8 14 17 24 21 23
9 37 -40 45 -32 5 -37 2 -51 -26 -19 -35 -51 -41 -61 -11 -3 11 1 30 11 44 22
35 13 52 -34 59 -22 4 -57 22 -83 42 -24 19 -59 38 -76 41 -28 5 -33 11 -33
35 0 49 77 78 132 48 11 -6 56 -12 99 -13 78 -3 80 -3 114 -41 l35 -38 61 7
c86 10 104 19 143 73 37 50 44 80 26 114 -15 28 -25 24 -45 -20 -11 -26 -28
-44 -49 -52 -17 -7 -42 -21 -55 -31 -34 -26 -55 -23 -117 17 -73 47 -226 123
-294 147 -30 10 -89 21 -130 24 -64 5 -80 2 -107 -15z"/>
<path d="M9728 8543 c-9 -10 -25 -45 -36 -78 -11 -33 -24 -69 -28 -79 -15 -40
16 -4 56 63 37 63 51 111 32 111 -5 0 -16 -8 -24 -17z"/>
<path d="M9561 8322 c-41 -20 -52 -42 -22 -42 24 0 94 59 71 60 -8 0 -30 -8
-49 -18z"/>
<path d="M9020 8315 c-23 -28 -8 -50 38 -53 49 -4 101 22 66 33 -10 4 -34 13
-52 21 -40 17 -37 17 -52 -1z"/>
<path d="M8995 8120 c3 -5 13 -10 21 -10 8 0 14 5 14 10 0 6 -9 10 -21 10 -11
0 -17 -4 -14 -10z"/>
<path d="M8865 7929 c-11 -17 -9 -93 3 -116 9 -15 25 -22 64 -27 75 -9 240 23
298 58 l45 28 -96 -7 c-99 -6 -132 1 -174 36 -40 33 -127 51 -140 28z"/>
<path d="M5316 7853 c-3 -3 -6 -15 -6 -25 0 -10 -18 -29 -42 -44 -37 -24 -40
-28 -25 -39 10 -7 45 -16 78 -19 47 -6 66 -4 84 8 14 9 37 16 52 16 16 0 39 7
52 16 34 24 11 39 -59 37 -54 -2 -64 1 -94 27 -18 16 -36 27 -40 23z"/>
<path d="M5077 7763 c-13 -12 -7 -33 8 -33 8 0 15 9 15 20 0 20 -11 26 -23 13z"/>
<path d="M7780 7650 c0 -5 9 -10 21 -10 11 0 17 5 14 10 -3 6 -13 10 -21 10
-8 0 -14 -4 -14 -10z"/>
<path d="M7860 7634 c0 -14 67 -50 76 -41 7 7 -48 57 -62 57 -8 0 -14 -7 -14
-16z"/>
<path d="M8534 7589 c-6 -10 11 -28 28 -29 15 0 20 23 7 31 -19 12 -26 11 -35
-2z"/>
<path d="M8147 7553 c-13 -12 -7 -23 13 -23 11 0 20 7 20 15 0 15 -21 21 -33
8z"/>
<path d="M7454 7466 c-7 -19 3 -36 22 -36 10 0 14 8 12 22 -4 26 -26 36 -34
14z"/>
<path d="M5256 7350 c-5 -27 -9 -30 -31 -24 -23 6 -25 4 -25 -29 0 -28 11 -48
51 -96 53 -63 53 -63 164 -75 28 -3 59 -7 69 -8 12 -2 24 6 31 19 7 13 19 31
27 40 9 11 18 48 22 89 6 62 5 72 -10 78 -22 9 -44 -11 -44 -40 0 -28 -24 -32
-54 -9 -11 8 -28 15 -38 15 -10 0 -23 9 -30 20 -8 12 -24 20 -38 20 -15 0 -35
7 -46 15 -29 22 -41 18 -48 -15z"/>
<path d="M7445 7370 c-12 -19 20 -65 61 -87 83 -46 127 -25 52 24 -24 15 -51
38 -61 51 -19 23 -42 29 -52 12z"/>
<path d="M7305 7330 c3 -5 8 -10 11 -10 2 0 4 5 4 10 0 6 -5 10 -11 10 -5 0
-7 -4 -4 -10z"/>
<path d="M7929 7304 c-16 -19 -3 -43 29 -55 20 -8 22 -5 22 31 0 32 -4 40 -19
40 -10 0 -24 -7 -32 -16z"/>
<path d="M7360 7261 c0 -22 21 -33 40 -21 18 11 4 40 -20 40 -13 0 -20 -7 -20
-19z"/>
<path d="M7290 7238 c1 -21 28 -51 39 -43 17 10 13 21 -14 39 -18 12 -25 13
-25 4z"/>
<path d="M7080 7178 c0 -35 57 -138 76 -138 27 0 37 29 25 70 -10 35 -71 100
-93 100 -5 0 -8 -14 -8 -32z"/>
<path d="M8610 6615 c-7 -8 -19 -15 -27 -15 -11 0 -14 -7 -10 -22 8 -31 -28
-68 -65 -68 -22 0 -29 -4 -26 -17 6 -31 178 -22 178 9 0 5 15 23 33 39 l32 30
-35 29 c-39 33 -62 37 -80 15z m27 -71 c-12 -12 -37 5 -30 21 5 15 7 15 21 1
9 -9 13 -18 9 -22z"/>
<path d="M5373 6593 c-20 -7 -15 -23 7 -23 11 0 20 4 20 9 0 13 -12 19 -27 14z"/>
<path d="M8475 6330 c3 -5 8 -10 11 -10 2 0 4 5 4 10 0 6 -5 10 -11 10 -5 0
-7 -4 -4 -10z"/>
<path d="M8510 6321 c0 -6 14 -26 31 -46 l32 -36 -19 -34 c-10 -20 -27 -38
-37 -41 -10 -3 -23 -17 -29 -30 -6 -13 -31 -35 -55 -49 -51 -30 -55 -45 -12
-45 24 0 43 13 93 64 34 35 69 65 76 68 12 4 12 10 1 36 -12 28 -12 35 3 51
21 23 20 38 -1 49 -31 16 -83 24 -83 13z"/>
<path d="M8102 5889 c-13 -5 -55 -12 -94 -16 l-70 -6 7 -36 c4 -20 11 -38 16
-40 6 -2 14 -14 19 -27 7 -18 17 -24 40 -24 31 0 70 30 70 53 0 7 14 26 30 42
30 29 40 66 18 64 -7 0 -24 -4 -36 -10z"/>
<path d="M6382 5643 c3 -19 72 -43 85 -29 15 15 -15 41 -51 44 -32 3 -37 0
-34 -15z"/>
<path d="M7577 5554 c-16 -16 -7 -44 14 -44 15 0 20 5 17 22 -3 22 -19 33 -31
22z"/>
<path d="M7173 5513 c-22 -8 -14 -32 13 -39 28 -7 61 16 50 35 -7 11 -41 14
-63 4z"/>
<path d="M7486 5437 c-5 -15 -6 -31 -2 -34 11 -11 18 5 14 34 l-4 28 -8 -28z"/>
<path d="M4344 4615 c-7 -17 4 -37 17 -30 12 8 12 45 -1 45 -6 0 -13 -7 -16
-15z"/>
<path d="M3457 4293 c-12 -11 -8 -23 8 -23 8 0 15 7 15 15 0 16 -12 20 -23 8z"/>
</g>
</svg>
