<?xml version="1.0" standalone="no"?>
<!DOCTYPE svg PUBLIC "-//W3C//DTD SVG 20010904//EN"
 "http://www.w3.org/TR/2001/REC-SVG-20010904/DTD/svg10.dtd">
<svg version="1.0" xmlns="http://www.w3.org/2000/svg"
 width="300.000000pt" height="300.000000pt" viewBox="0 0 300.000000 300.000000"
 preserveAspectRatio="xMidYMid meet">

<g transform="translate(0.000000,300.000000) scale(0.100000,-0.100000)"
fill="#000000" stroke="none">
<path d="M1362 2045 c24 -64 17 -81 -41 -90 -170 -28 -273 -56 -363 -101 -46
-23 -65 -40 -55 -50 3 -3 37 10 76 30 73 36 143 58 266 81 80 16 93 11 130
-43 28 -41 33 -30 10 25 -14 32 -14 38 0 53 8 9 15 26 15 37 0 35 -31 113 -46
113 -10 0 -9 -12 8 -55z"/>
<path d="M1617 2045 c-21 -44 -22 -83 -1 -106 14 -15 14 -20 0 -54 -23 -55
-19 -65 9 -23 38 56 51 60 145 42 103 -19 210 -52 231 -70 8 -8 21 -14 28 -14
6 0 23 -7 37 -16 31 -21 43 -11 19 16 -34 38 -244 104 -397 125 -63 8 -76 26
-55 71 10 19 17 41 17 49 0 26 -16 16 -33 -20z"/>
<path d="M1191 1704 c-60 -50 -26 -144 52 -144 79 0 114 85 58 141 -36 36 -70
37 -110 3z m77 -51 c-5 -26 -38 -29 -38 -4 0 15 6 21 21 21 14 0 19 -5 17 -17z"/>
<path d="M1689 1671 c-33 -33 -37 -65 -12 -101 23 -34 33 -40 71 -40 87 0 113
117 35 158 -35 19 -63 14 -94 -17z m71 -51 c0 -11 -6 -20 -14 -20 -18 0 -29
16 -21 30 11 18 35 11 35 -10z"/>
<path d="M1010 1578 c0 -5 16 -26 36 -48 85 -93 236 -87 306 13 l22 32 -41
-37 c-94 -83 -221 -72 -305 27 -10 11 -17 17 -18 13z"/>
<path d="M1629 1562 c22 -42 82 -90 128 -102 79 -23 157 7 212 80 25 34 25 34
-21 -7 -94 -85 -202 -83 -287 4 -23 25 -38 36 -32 25z"/>
<path d="M1900 1123 c0 -5 9 -21 20 -38 11 -16 20 -35 20 -41 0 -7 -54 -13
-157 -17 -194 -8 -332 -21 -487 -48 -141 -24 -236 -49 -236 -62 0 -10 13 -9
155 21 55 12 154 28 220 36 142 18 489 40 510 33 8 -4 15 -24 17 -53 4 -55 28
-75 28 -22 -1 54 -19 121 -46 161 -22 34 -44 49 -44 30z"/>
</g>
</svg>
